Coordinates
version=1
nRows=14
nColumns=42
inDegrees=yes

Units are S.I. units (second, meters, Newtons, ...)
If the header above contains a line with 'inDegrees', this indicates whether rotational values are in degrees (yes) or radians (no).

endheader
time	pelvis_tilt	pelvis_list	pelvis_rotation	pelvis_tx	pelvis_ty	pelvis_tz	hip_flexion_r	hip_adduction_r	hip_rotation_r	knee_angle_r	knee_adduction_r	knee_angle_r_beta	ankle_angle_r	subtalar_angle_r	mtp_angle_r	hip_flexion_l	hip_adduction_l	hip_rotation_l	knee_angle_l	knee_adduction_l	knee_angle_l_beta	ankle_angle_l	subtalar_angle_l	mtp_angle_l	lumbar_extension	lumbar_bending	lumbar_rotation	arm_flex_r	arm_add_r	arm_rot_r	elbow_flex_r	pro_sup_r	wrist_flex_r	wrist_dev_r	arm_flex_l	arm_add_l	arm_rot_l	elbow_flex_l	pro_sup_l	wrist_flex_l	wrist_dev_l
      0.00000000	      8.67577714	      5.35142758	     -4.13196620	     -1.94085179	      0.96756221	      0.23915415	     -4.84780750	    -11.65710140	     -8.08217671	     61.65464120	     -2.36799265	      1.07607649	      5.06270531	     -9.42499381	     -9.28698670	      3.39292396	      4.85226203	    -12.62547187	     16.32430420	      2.12950455	      0.28491286	     11.85081771	     14.54660998	     -9.28698670	    -20.41293503	     -5.37174041	     -1.15697209	     -5.33707172	    -12.41043216	     12.91055353	     34.38708295	     90.00000001	      0.00000000	      0.00000000	     -7.07964418	    -12.44424281	      1.51425846	     37.07448013	     90.00000001	      0.00000000	      0.00000000
      0.01000000	      8.63902109	      5.14374016	     -4.00269459	     -1.93482475	      0.96866908	      0.23851035	     -3.99128576	    -11.35944484	     -8.10927710	     61.81094514	     -2.38437350	      1.07880451	      5.52287588	     -9.32277955	     -9.26831208	      2.85153279	      4.74974931	    -12.64360911	     15.99764891	      2.05045143	      0.27921165	     11.94136344	     14.64864279	     -9.26831208	    -20.42806734	     -5.02947292	     -1.32251232	     -5.42304014	    -12.39663945	     12.89745403	     34.34699141	     90.00000001	      0.00000000	      0.00000000	     -6.69997509	    -12.54998341	      1.51343632	     37.22707732	     90.00000001	      0.00000000	      0.00000000
      0.02000000	      8.56311786	      4.85929057	     -3.84585183	     -1.92669923	      0.97005138	      0.23778954	     -2.86276807	    -10.91554288	     -8.15038937	     61.88188266	     -2.43676530	      1.08004260	      6.31451586	     -9.14076790	     -9.24632463	      2.07150820	      4.58547537	    -12.47866885	     15.38062973	      2.04031806	      0.26844263	     12.15540350	     14.93925828	     -9.24632463	    -20.37867040	     -4.59168729	     -1.46087115	     -5.55105088	    -12.39102667	     12.87131708	     34.22653843	     90.00000001	      0.00000000	      0.00000000	     -6.17302659	    -12.74770296	      1.54130028	     37.40608459	     90.00000001	      0.00000000	      0.00000000
      0.03000000	      8.77232411	      4.50645080	     -3.60613701	     -1.91634907	      0.97214033	      0.23708369	     -1.98926759	    -10.39038474	     -8.51203989	     61.58833581	     -2.59570205	      1.07491924	      7.61350068	     -7.90224393	     -9.16330178	      0.60198005	      4.36250695	    -11.81701628	     14.33113738	      2.20466811	      0.25012553	     12.41829326	     15.17366432	     -9.16330178	    -20.61843182	     -4.08438247	     -1.65047123	     -5.77695430	    -12.28463579	     12.61981792	     34.11255326	     90.00000001	      0.00000000	      0.00000000	     -5.52266696	    -13.07194355	      1.78746388	     37.66067084	     90.00000001	      0.00000000	      0.00000000
      0.04000000	      8.62808997	      4.15633914	     -3.37517708	     -1.90485814	      0.97374716	      0.23613840	     -0.40451891	     -9.84762199	     -8.64487847	     61.39283861	     -2.58318638	      1.07150717	      8.61435789	     -7.55559804	     -9.12805219	     -0.46232025	      4.13306192	    -11.49793755	     13.45006246	      2.25857613	      0.23474787	     12.66288196	     15.48571385	     -9.12805219	    -20.51220305	     -3.53201585	     -1.86741552	     -5.99101635	    -12.23299837	     12.56397345	     33.99593542	     90.00000001	      0.00000000	      0.00000000	     -4.82931182	    -13.35950709	      1.81628086	     38.01155789	     90.00000001	      0.00000000	      0.00000000
      0.05000000	      8.45363043	      3.77761769	     -3.12239279	     -1.89209366	      0.97533764	      0.23510540	      1.27439400	     -9.24945105	     -8.76948302	     60.91132217	     -2.49481723	      1.06310312	      9.64521368	     -7.20265664	     -9.10120203	     -1.59548202	      3.90721797	    -11.25610603	     12.51220795	      2.20657068	      0.21837923	     12.90397849	     15.82520466	     -9.10120203	    -20.34495861	     -2.93944853	     -2.10259281	     -6.26019457	    -12.18464288	     12.47893722	     33.90495996	     90.00000001	      0.00000000	      0.00000000	     -4.10411006	    -13.67104234	      1.82518326	     38.47391872	     90.00000001	      0.00000000	      0.00000000
      0.06000000	      8.73159797	      3.31358425	     -2.77905988	     -1.87800755	      0.97750911	      0.23410038	      2.29991552	     -8.59521983	     -9.22726827	     59.85959919	     -2.42927782	      1.04474709	     10.92877564	     -5.94630583	     -9.02788088	     -3.56979167	      3.57013632	    -10.49363844	     11.07652020	      2.36839216	      0.19332175	     13.06998538	     15.87024515	     -9.02788088	    -20.64309207	     -2.25433699	     -2.39821595	     -6.59424909	    -12.06729728	     12.07267138	     33.86178262	     90.00000001	      0.00000000	      0.00000000	     -3.34643406	    -14.05876570	      1.93886045	     39.01389789	     90.00000001	      0.00000000	      0.00000000
      0.07000000	      8.38097488	      2.99735994	     -2.52778830	     -1.86401870	      0.97842310	      0.23311241	      4.25560794	     -8.06675825	     -9.33737308	     58.89583416	     -2.18975975	      1.02792622	     11.82589995	     -5.77951658	     -9.00155624	     -4.61664690	      3.35563696	    -10.29590666	     10.07177537	      2.37266296	      0.17578564	     13.27434492	     16.22308903	     -9.00155624	    -20.27457753	     -1.73495552	     -2.63219615	     -6.93140156	    -11.99920847	     12.00454757	     33.80079427	     90.00000001	      0.00000000	      0.00000000	     -2.62075839	    -14.41596654	      1.86814436	     39.64082341	     90.00000001	      0.00000000	      0.00000000
      0.08000000	      8.11765821	      2.65712638	     -2.27214651	     -1.84961313	      0.97921943	      0.23212677	      5.98314792	     -7.51787480	     -9.38911030	     57.51427876	     -1.80176586	      1.00381353	     12.71674370	     -5.56133772	     -8.97564706	     -5.85026244	      3.11909887	    -10.04652081	      8.93143209	      2.36865725	      0.15588290	     13.53605836	     16.68930243	     -8.97564706	    -19.99504824	     -1.18861570	     -2.88871411	     -7.27041136	    -11.92791031	     11.84984120	     33.75370391	     90.00000001	      0.00000000	      0.00000000	     -1.92372075	    -14.77129676	      1.77851166	     40.32884618	     90.00000001	      0.00000000	      0.00000000
      0.09000000	      8.42956598	      2.22808716	     -1.97741062	     -1.83455494	      0.98058918	      0.23136392	      6.74766719	     -6.87765565	     -9.56532883	     55.41970719	     -1.33630488	      0.96725636	     13.38304838	     -5.27434201	     -8.91275921	     -7.93422985	      2.71814437	     -9.53256604	      7.47780015	      2.56891441	      0.13051223	     13.62024940	     16.90758091	     -8.91275921	    -20.27934267	     -0.58788097	     -3.12976456	     -7.67242262	    -11.79064636	     11.41878424	     33.79071917	     90.00000001	      0.00000000	      0.00000000	     -1.22161391	    -15.13589623	      1.66610359	     41.09291620	     90.00000001	      0.00000000	      0.00000000
      0.10000000	      7.97194323	      2.27943443	     -1.73547680	     -1.82026685	      0.98027952	      0.23029856	      8.59079937	     -6.84501307	     -9.76946557	     53.53059564	     -0.94874978	      0.93428514	     13.65320710	     -5.23572074	     -8.89791285	     -8.64986784	      2.86590401	     -9.89869707	      6.94052397	      2.48621998	      0.12113500	     13.81675044	     16.97922389	     -8.89791285	    -19.75705419	     -0.47283636	     -3.45773157	     -8.07375415	    -11.71910734	     11.39110594	     33.80718394	     90.00000001	      0.00000000	      0.00000000	     -0.54179087	    -15.51537014	      1.56877095	     41.72433741	     90.00000001	      0.00000000	      0.00000000
      0.11000000	      7.58020798	      2.02641893	     -1.59563727	     -1.80593078	      0.97970573	      0.22966199	     10.18631328	     -6.34872649	     -9.66870609	     51.24716350	     -0.44311432	      0.89443174	     14.36137809	     -5.38961339	     -8.87706567	     -9.79400222	      2.73473000	     -9.65593361	      5.64679228	      2.38839462	      0.09855512	     14.14731682	     17.81519964	     -8.87706567	    -19.30722849	     -0.08465847	     -3.68501972	     -8.36906128	    -11.63797935	     11.22228890	     33.78087529	     90.00000001	      0.00000000	      0.00000000	     -0.04348067	    -15.88469864	      1.42981752	     42.65089450	     90.00000001	      0.00000000	      0.00000000
      0.12000000	      8.09224248	      1.57461175	     -1.35822616	     -1.79095724	      0.98016755	      0.22932792	     10.28613264	     -5.63595329	     -9.50957426	     48.11182970	      0.32380055	      0.83970984	     14.46636171	     -6.16601875	     -8.82674306	    -12.08301779	      2.18197605	     -9.51570395	      4.23297389	      2.70176204	      0.07387933	     14.38194142	     18.74890195	     -8.82674306	    -19.78726475	      0.49287224	     -3.80736590	     -8.73865380	    -11.48745442	     10.79617493	     33.84104457	     90.00000001	      0.00000000	      0.00000000	      0.59495858	    -16.21829803	      1.23048535	     43.59148541	     90.00000001	      0.00000000	      0.00000000
      0.13000000	      7.97818873	      1.38445450	     -1.19500257	     -1.77664586	      0.97921291	      0.22893420	     11.21580147	     -5.19808304	     -9.40715383	     45.06849293	      0.84720486	      0.78659359	     14.39784603	     -6.88650199	     -8.76384272	    -13.37302275	      1.96543380	     -9.69846731	      3.33803578	      2.81865176	      0.05825971	     14.74428796	     19.49091152	     -8.76384272	    -19.61984682	      0.78611785	     -3.96748677	     -9.08654595	    -11.37605214	     10.59770126	     33.86958883	     90.00000001	      0.00000000	      0.00000000	      1.17792599	    -16.57119415	      1.14136635	     44.47271624	     90.00000001	      0.00000000	      0.00000000
